<?xml version="1.0" encoding="UTF-8" standalone="no"?>
<!-- Created with Inkscape (http://www.inkscape.org/) -->

<svg
   width="256mm"
   height="256mm"
   viewBox="0 0 256 256"
   version="1.1"
   id="svg1"
   sodipodi:docname="doodle1.svg"
   inkscape:version="1.3 (0e150ed6c4, 2023-07-21)"
   xmlns:inkscape="http://www.inkscape.org/namespaces/inkscape"
   xmlns:sodipodi="http://sodipodi.sourceforge.net/DTD/sodipodi-0.dtd"
   xmlns="http://www.w3.org/2000/svg"
   xmlns:svg="http://www.w3.org/2000/svg">
  <sodipodi:namedview
     id="namedview1"
     pagecolor="#ffffff"
     bordercolor="#000000"
     borderopacity="0.25"
     inkscape:showpageshadow="2"
     inkscape:pageopacity="0.0"
     inkscape:pagecheckerboard="0"
     inkscape:deskcolor="#d1d1d1"
     inkscape:document-units="mm"
     inkscape:zoom="0.70110129"
     inkscape:cx="477.81969"
     inkscape:cy="498.50144"
     inkscape:window-width="1920"
     inkscape:window-height="1001"
     inkscape:window-x="-9"
     inkscape:window-y="-9"
     inkscape:window-maximized="1"
     inkscape:current-layer="layer2" />
  <defs
     id="defs1" />
  <g
     inkscape:label="Layer 1"
     inkscape:groupmode="layer"
     id="layer1"
     style="display:none;opacity:0.294">
    <path
       style="fill:#000000;fill-opacity:1;fill-rule:nonzero;stroke:none;stroke-width:0.264583"
       id="path1"
       d="m 171.72033,121.16686 c 0.48098,-0.20894 0.97795,-0.38438 1.44294,-0.62684 2.19506,-1.14462 4.14385,-2.71167 6.0417,-4.28323 2.31497,-1.91696 3.51571,-3.01796 5.80602,-5.04785 3.68315,-3.3579 7.19585,-6.90607 10.30345,-10.81051 3.50066,-4.3983 6.48753,-9.123036 9.4537,-13.885674 3.61129,-6.10017 7.20781,-12.223308 10.35065,-18.582529 2.03109,-4.109712 2.40761,-5.121505 4.19835,-9.264152 1.81546,-4.307062 3.26916,-8.750273 4.90766,-13.124085 3.96248,-10.59711 -11.0241,-16.200897 -14.98658,-5.603785 v 0 c -1.54168,4.129802 -2.92504,8.318556 -4.61362,12.393092 -1.5763,3.666593 -1.93832,4.634804 -3.73146,8.275618 -2.94434,5.978216 -6.3317,11.725947 -9.71532,17.461722 -2.53595,4.092308 -5.08122,8.175281 -8.05707,11.970539 -2.61537,3.335525 -5.60293,6.343922 -8.72679,9.199866 -2.17459,1.930418 -3.05382,2.742888 -5.21139,4.545728 -0.54909,0.45881 -1.1087,0.90497 -1.66902,1.34999 -0.31383,0.24926 -0.64107,0.48141 -0.95327,0.73271 -0.068,0.0547 -0.15661,0.10207 -0.18592,0.18425 -0.0138,0.0388 0.0821,-0.006 0.12321,-0.008 -10.69399,3.69305 -5.47123,18.81663 5.22276,15.12358 z" />
    <path
       style="fill:#000000;fill-opacity:1;fill-rule:nonzero;stroke:none;stroke-width:0.264583"
       id="path2"
       d="m 235.25638,68.645507 c 0.21841,-0.07589 0.45452,-0.05763 0.67635,-0.112667 0.0433,-0.01074 0.0697,-0.06298 0.11364,-0.07067 0.11904,-0.02085 0.2747,0.07058 0.36234,-0.01265 0.0542,-0.05143 -0.21758,-0.54214 -0.39271,-0.890165 -2.31158,-4.015287 -3.53973,-8.506587 -4.66169,-12.966123 -1.20365,-4.784418 -2.17553,-9.614754 -2.76627,-14.512562 -0.19948,-1.737635 -0.33562,-3.481247 -0.35011,-5.230289 -0.12606,-0.448019 0.28463,-3.088748 -0.0899,-0.833773 2.67044,-10.994025 -12.87746,-14.770604 -15.54791,-3.776573 v 0 c -0.28675,1.57896 -0.41166,3.168566 -0.36137,4.775968 0.0275,2.340872 0.19197,4.676076 0.46689,7.001322 0.68523,5.569645 1.76232,11.07096 3.14029,16.511854 1.67223,6.542061 3.63136,13.095444 7.45851,18.747023 0.7584,0.920332 1.43769,1.912022 2.27521,2.760993 3.09806,3.14044 7.29444,4.839639 11.69124,4.480975 11.22367,-1.4245 9.20912,-17.297166 -2.01455,-15.872666 z" />
    <path
       style="fill:#000000;fill-opacity:1;fill-rule:nonzero;stroke:none;stroke-width:0.264583"
       id="path3"
       d="m 206.33978,31.48349 c -0.20051,0.201263 0.29292,-0.729152 0.12956,-0.603869 -0.15257,0.117009 -0.211,0.321635 -0.32332,0.477697 -0.18386,0.255482 -0.36858,0.510654 -0.56498,0.756624 -0.88454,1.107742 -1.10629,1.301895 -2.1334,2.411653 -2.76622,2.970078 -6.03863,5.371873 -9.62126,7.253367 -2.93349,1.327158 -6.11361,1.903135 -9.25501,2.499828 -2.05086,0.411271 -1.07328,0.211439 -2.93314,0.597578 -11.07718,2.301335 -7.8226,17.96683 3.25457,15.665494 v 0 c 1.70209,-0.353869 0.81256,-0.171709 2.66887,-0.544988 4.74658,-0.904307 9.50515,-1.933702 13.85267,-4.131646 0.81957,-0.448358 1.65485,-0.869106 2.4587,-1.345076 4.21678,-2.49683 8.02104,-5.656175 11.3895,-9.205293 2.67461,-2.955449 5.43452,-6.043478 6.59807,-9.944976 2.74809,-10.97488 -12.77273,-14.861272 -15.52083,-3.886393 z" />
    <path
       style="fill:#000000;fill-opacity:1;fill-rule:nonzero;stroke:none;stroke-width:0.264583"
       id="path11"
       d="m 43.140701,180.83392 c 0.510132,-2.69184 1.082336,-5.37131 1.651656,-8.05117 1.428385,-6.88327 2.771921,-13.7838 4.162332,-20.67483 1.014423,-4.75516 1.887948,-9.53843 2.833095,-14.3072 0.04523,-0.17794 0.09046,-0.35588 0.135697,-0.53381 2.651371,-10.99865 -12.903062,-14.74826 -15.554436,-3.74961 v 0 c -0.0924,0.39301 -0.184803,0.78601 -0.277206,1.17902 -0.937657,4.74946 -1.813407,9.51138 -2.821081,14.24706 -1.379611,6.83763 -2.713233,13.68458 -4.129185,20.51477 -0.745495,3.50977 -1.598776,7.02089 -1.981684,10.59237 -0.553945,11.30014 15.426867,12.08354 15.980812,0.7834 z" />
    <path
       style="fill:#000000;fill-opacity:1;fill-rule:nonzero;stroke:none;stroke-width:0.264583"
       id="path12"
       d="m 38.407213,137.17293 c 2.766866,2.24601 5.55672,4.46338 8.318949,6.71544 2.986553,2.46364 5.897801,5.01593 8.886605,7.47684 8.736116,7.1889 18.902754,-5.16583 10.166639,-12.35473 v 0 c -3.009273,-2.47469 -5.932678,-5.05087 -8.943681,-7.52359 -2.976084,-2.42575 -5.972199,-4.82733 -8.973384,-7.22134 -9.126897,-6.68578 -18.582028,6.2216 -9.455128,12.90738 z" />
    <path
       style="fill:#000000;fill-opacity:1;fill-rule:nonzero;stroke:none;stroke-width:0.264583"
       id="path13"
       d="m 72.889879,148.92519 c 1.520259,-4.55361 3.101102,-9.08662 4.657688,-13.62786 0.878231,-2.58978 1.772989,-5.17217 2.736966,-7.73116 3.976399,-10.59189 -11.002801,-16.21537 -14.979202,-5.62348 v 0 c -1.012749,2.70545 -1.971046,5.42894 -2.893354,8.16678 -1.609098,4.69465 -3.247514,9.37948 -4.808434,14.09047 -3.341251,10.80908 11.945088,15.53432 15.286336,4.72525 z" />
    <path
       style="fill:#000000;fill-opacity:1;fill-rule:nonzero;stroke:none;stroke-width:0.264583"
       id="path14"
       d="m 67.128339,123.24975 c 1.33187,4.03281 2.431261,8.14961 3.612793,12.23074 2.29253,8.08962 5.096719,16.01848 7.992697,23.90781 1.162066,3.24661 2.409764,6.4583 3.80647,9.61078 4.601316,10.33576 19.218281,3.82851 14.61697,-6.50725 v 0 c -1.263811,-2.82093 -2.352106,-5.71213 -3.403883,-8.61833 -2.768505,-7.53793 -5.453967,-15.11223 -7.643384,-22.84248 -1.353844,-4.6763 -2.565797,-9.41378 -4.234627,-13.98811 -4.388903,-10.42773 -19.135939,-4.22088 -14.747036,6.20684 z" />
    <path
       style="fill:#000000;fill-opacity:1;fill-rule:nonzero;stroke:none;stroke-width:0.264583"
       id="path16"
       d="m 110.72737,115.29169 c 1.6201,-1.97555 3.50681,-3.7103 5.35876,-5.4634 1.19027,-1.13187 2.4245,-2.20733 3.72913,-3.20368 8.92087,-6.958324 -0.91969,-19.574324 -9.84055,-12.616002 v 0 c -1.69021,1.334484 -3.34471,2.70605 -4.89386,4.205727 -2.75654,2.614435 -5.572134,5.224315 -7.763595,8.349875 -6.171259,9.48239 7.238855,18.20986 13.410115,8.72748 z" />
    <path
       style="fill:#000000;fill-opacity:1;fill-rule:nonzero;stroke:none;stroke-width:0.264583"
       id="path19"
       d="m 155.82671,188.34649 c -1.22505,1.25518 -3.97231,2.52068 -5.5633,1.69179 -2.62697,-1.36863 -5.11493,-3.39718 -6.58164,-5.97067 -0.79774,-1.39971 0.29022,-3.20907 0.43533,-4.8136 0.42129,-0.64328 0.73413,-1.37245 1.26387,-1.92983 2.44487,-2.57243 5.76451,-2.70041 8.88335,-1.12048 2.0051,1.01574 2.30664,2.27561 3.10614,4.02161 0.18293,1.31602 0.56293,2.76773 -0.14719,4.05765 -0.79802,1.44959 -2.02828,2.61507 -3.04242,3.92261 9.464,-6.19942 0.69669,-19.58353 -8.7673,-13.38411 v 0 c -1.08353,1.35299 -2.4062,2.54516 -3.25058,4.05896 -0.88818,1.59234 -0.47207,3.55037 -0.31887,5.20912 0.93401,2.36879 1.23403,4.08651 3.76053,5.56815 3.79209,2.22382 7.94881,1.94585 11.12661,-1.05649 0.76132,-0.71928 1.241,-1.68755 1.86149,-2.53133 0.24004,-1.80613 1.53884,-3.7907 0.7201,-5.41839 -1.38996,-2.76329 -3.96263,-4.96629 -6.68362,-6.43733 -1.75542,-0.94903 -4.719,0.48317 -6.32304,1.40801 -0.70175,0.40461 -1.33662,1.02472 -1.93498,1.55423 -7.89845,8.10027 3.55706,19.27037 11.45552,11.1701 z" />
    <path
       style="fill:#000000;fill-opacity:1;fill-rule:nonzero;stroke:none;stroke-width:0.264583"
       id="path20"
       d="m 190.1757,165.58924 c -0.94614,0.40615 -2.16846,0.57458 -3.14386,0.22821 -3.44308,-1.22265 -5.35906,-2.7924 -5.82277,-6.8138 -0.16677,-1.44628 0.70576,-2.8249 1.05864,-4.23736 0.53423,-0.62933 1.30683,-1.8057 2.2211,-2.13732 0.8401,-0.30472 1.71058,-0.6609 2.60394,-0.63804 3.02281,0.0773 5.01295,1.38002 6.53819,4.12812 0.58536,1.05466 0.43303,2.37324 0.64955,3.55986 -0.23399,0.84614 -0.46798,1.69228 -0.70197,2.53842 5.3072,-9.99168 -8.82317,-17.49719 -14.13037,-7.50551 v 0 c -0.35802,1.07964 -0.71604,2.15928 -1.07406,3.23893 0.18352,1.49035 -0.091,3.11339 0.55055,4.47106 1.6428,3.47673 4.14635,5.2421 7.86204,5.56619 1.31473,0.11467 2.64608,-0.23804 3.91141,-0.61302 2.21416,-0.65618 3.17206,-2.02475 4.78517,-3.58931 0.57339,-1.73556 1.78743,-3.38009 1.72018,-5.20668 -0.16931,-4.5981 -2.54739,-6.78326 -6.415,-8.31429 -2.03472,-0.80547 -4.3961,-0.19888 -6.37055,0.39645 -10.55575,4.07139 -4.79794,18.99947 5.75781,14.92809 z" />
    <path
       style="fill:#000000;fill-opacity:1;fill-rule:nonzero;stroke:none;stroke-width:0.264583"
       id="path21"
       d="m 196.6803,189.13092 c -0.77819,-0.16047 -0.13473,-1.0304 -0.44884,-1.41119 -0.002,-0.003 -0.0401,0.13707 -0.15955,0.53347 -0.27342,0.90711 -0.12539,0.46995 -0.50725,1.43913 -1.26381,3.0045 -3.19327,5.65924 -5.19628,8.20615 -2.13571,2.60233 -4.88631,4.50865 -7.91305,5.9383 -0.71654,0.33845 -1.4565,0.62491 -2.18475,0.93737 -2.81207,1.02993 -5.73676,1.74647 -8.72728,1.98014 -1.45364,0.11358 -1.8779,0.0533 -3.28306,-0.0119 -0.31662,-0.0313 -2.90437,-0.36524 -2.82977,-1.01451 -0.0144,-0.0533 0.10583,0.0422 0.14388,0.0822 -6.77568,-9.06037 -19.58897,0.52189 -12.81329,9.58225 v 0 c 0.71288,0.91459 1.45274,1.80372 2.34285,2.55694 1.30347,1.0414 1.66608,1.41835 3.18725,2.24624 2.92635,1.59264 6.17762,2.3098 9.47977,2.5394 0.92237,0.0202 1.84468,0.0772 2.76713,0.0606 5.55486,-0.1006 11.0141,-1.3812 16.18057,-3.37808 1.08864,-0.4876 2.19605,-0.9353 3.26592,-1.46281 5.01323,-2.47179 9.47803,-5.87544 13.00733,-10.22511 3.02455,-3.91133 5.8736,-8.01023 7.64359,-12.66393 1.04859,-3.06381 1.99402,-6.33199 1.4728,-9.61182 -0.11845,-0.7454 -0.3637,-1.46503 -0.54554,-2.19755 -4.15413,-10.52346 -19.03655,-4.64865 -14.88243,5.87481 z" />
    <path
       style="fill:#000000;fill-opacity:1;fill-rule:nonzero;stroke:none;stroke-width:0.264583"
       id="path22"
       d="m 94.234028,119.65786 c 1.332053,3.00803 2.662039,6.01469 3.918085,9.05574 1.892667,4.70555 3.839817,9.38882 5.745027,14.08926 1.37339,3.54142 2.8184,7.05482 4.15618,10.60992 0.85276,2.28571 1.66922,4.58538 2.66847,6.81209 4.71455,10.2846 19.25917,3.61722 14.54462,-6.66738 v 0 c -0.90324,-1.85899 -1.45343,-3.87536 -2.23955,-5.78325 -1.38632,-3.67909 -2.87675,-7.31763 -4.30158,-10.98189 -1.91908,-4.73418 -3.87964,-9.45137 -5.78648,-14.19053 -1.19882,-2.89846 -2.42782,-5.78395 -3.74887,-8.62912 -4.02001,-10.57542 -18.975915,-4.89026 -14.955902,5.68516 z" />
    <path
       style="fill:#000000;fill-opacity:1;fill-rule:nonzero;stroke:none;stroke-width:0.264583"
       id="path23"
       d="m 127.66163,164.2418 c 2.19688,-2.25985 4.43712,-4.47504 6.70616,-6.66233 4.22801,-4.24392 8.94739,-7.90883 13.82421,-11.36516 2.78479,-1.92884 1.44019,-1.0133 4.03046,-2.75153 9.39208,-6.30784 0.47145,-19.59025 -8.92063,-13.28241 v 0 c -2.83212,1.9035 -1.37428,0.9094 -4.37068,2.98647 -5.52399,3.926 -10.86611,8.09654 -15.66994,12.89552 -2.24508,2.16587 -4.47608,4.3462 -6.63729,6.59631 -8.19051,7.80485 2.8472,19.38797 11.03771,11.58313 z" />
    <path
       style="fill:#000000;fill-opacity:1;fill-rule:nonzero;stroke:none;stroke-width:0.264583"
       id="path24"
       d="m 120.0048,141.12952 c 1.47512,-1.48672 2.89144,-3.04093 4.29631,-4.59614 2.0773,-2.40836 4.38111,-4.59612 6.72024,-6.74438 8.32932,-7.65653 -2.49864,-19.43597 -10.82796,-11.77944 v 0 c -2.70364,2.48724 -5.35908,5.02836 -7.77112,7.805 -1.6839,1.86848 -3.45652,3.65526 -5.09932,5.55941 -6.89821,8.96742 5.78363,18.72297 12.68185,9.75555 z" />
  </g>
  <g
     inkscape:groupmode="layer"
     id="layer2"
     inkscape:label="Layer 2"
     style="display:inline">
    <path
       style="fill:#faf8eb;fill-opacity:1;fill-rule:nonzero;stroke:none;stroke-width:0.264583"
       id="path28"
       d="m 40.34374,183.03669 c 0.0063,0.17255 0.01257,0.34511 0.01887,0.51766 0.02019,0.004 0.05347,0.031 0.06059,0.0117 0.290227,-0.78672 0.484254,-1.60569 0.735253,-2.40579 0.211262,-0.67343 0.425969,-1.34577 0.638953,-2.01866 0.251235,-0.80238 0.502468,-1.60476 0.7537,-2.40714 2.075601,-6.77775 3.679648,-13.68494 5.50005,-20.53256 1.643597,-6.16051 3.704225,-12.1964 5.872493,-18.18852 0.695807,-1.75178 1.230442,-3.57055 1.982078,-5.30101 0.07173,-0.16515 0.135094,-0.34236 0.25639,-0.47541 0.0763,-0.0837 -0.07639,0.21323 -0.114581,0.31985 6.362599,-9.35507 -6.867469,-18.35314 -13.230066,-8.99807 v 0 c -0.351287,0.56696 -0.734078,1.11558 -1.053859,1.70089 -1.258864,2.30419 -1.890882,4.89791 -2.886115,7.31194 -2.324798,6.43085 -4.528531,12.91028 -6.289815,19.52169 -1.758759,6.62279 -3.314285,13.30136 -5.305674,19.86054 -0.468487,1.4964 -0.944211,2.99053 -1.411749,4.48723 -0.560784,1.7952 -1.172854,3.61076 -1.424383,5.4831 -0.07203,0.53618 -0.06272,1.08018 -0.09407,1.62028 0.358996,11.30801 16.350939,10.80031 15.991945,-0.5077 z" />
    <path
       style="fill:#faf8eb;fill-opacity:1;fill-rule:nonzero;stroke:none;stroke-width:0.264583"
       id="path29"
       d="m 72.960824,142.39835 c -1.207442,-2.04281 -2.46852,-4.05702 -3.751712,-6.05494 -2.328558,-3.58769 -4.542642,-7.24668 -6.71917,-10.92787 -0.28167,-0.44425 -0.563338,-0.8885 -0.845008,-1.33275 -6.086205,-9.53719 -19.573835,-0.93 -13.48763,8.60719 v 0 c 0.186674,0.28966 0.373348,0.57931 0.560022,0.86897 2.27752,3.85176 4.595813,7.67943 7.031294,11.43404 1.645272,2.55896 3.13,5.22922 4.941533,7.6733 7.260532,8.67668 19.531203,-1.59126 12.270671,-10.26794 z" />
    <path
       style="fill:#faf8eb;fill-opacity:1;fill-rule:nonzero;stroke:none;stroke-width:0.264583"
       id="path30"
       d="m 76.226666,147.16506 c 0.321858,-2.23539 0.990204,-4.4337 1.552464,-6.62059 1.412576,-5.48804 2.661616,-11.01808 4.249,-16.45954 0.154844,-0.47819 0.309689,-0.95638 0.464534,-1.43457 3.462766,-10.77076 -11.769389,-15.66785 -15.232153,-4.89709 v 0 c -0.198762,0.62169 -0.397525,1.24338 -0.596288,1.86507 -1.624661,5.60492 -2.942125,11.28937 -4.3815,16.94349 -0.894014,3.47991 -1.976753,6.98549 -2.056056,10.60323 0,11.3137 15.999999,11.3137 15.999999,0 z" />
    <path
       style="fill:#faf8eb;fill-opacity:1;fill-rule:nonzero;stroke:none;stroke-width:0.264583"
       id="path31"
       d="m 68.723663,117.52024 c 0.855861,2.98667 1.747993,5.96305 2.628537,8.94257 1.647187,5.41894 3.268858,10.84575 4.938234,16.2579 1.484651,4.9111 3.244799,9.72984 4.962495,14.56208 1.250437,3.522 2.412088,7.07968 3.885203,10.51704 0.170614,0.35236 0.341225,0.70471 0.511839,1.05706 5.016471,10.14076 19.357669,3.0464 14.3412,-7.09436 v 0 c -0.05879,-0.11139 -0.117584,-0.22277 -0.176374,-0.33416 -1.371595,-3.08462 -2.304357,-6.34729 -3.486103,-9.5048 -1.642268,-4.61952 -3.329908,-9.22451 -4.74927,-13.91951 -1.651199,-5.35144 -3.253521,-10.7179 -4.883269,-16.07591 -0.815737,-2.76019 -1.62945,-5.52099 -2.448171,-8.2803 -2.738197,-10.97735 -18.262518,-7.10496 -15.524321,3.87239 z" />
    <path
       style="fill:#faf8eb;fill-opacity:1;fill-rule:nonzero;stroke:none;stroke-width:0.264583"
       id="path32"
       d="m 124.49296,153.54384 c -0.0126,0.0286 0.1321,0.0383 0.11694,0.002 -0.47088,-1.11613 -1.06442,-2.17645 -1.59685,-3.26456 -0.20137,-0.41151 -2.60738,-5.33932 -2.75222,-5.63596 -3.05787,-6.08955 -5.50055,-12.44814 -7.73333,-18.87708 -1.73074,-5.20829 -3.57748,-10.37748 -5.68155,-15.44706 -0.57466,-1.3833 -1.24858,-2.71995 -1.94818,-4.04284 -5.322342,-9.983622 -19.441315,-2.4567 -14.118975,7.52692 v 0 c 0.469484,0.86792 0.91427,1.74891 1.294164,2.66073 1.99059,4.77335 3.704479,9.6539 5.342474,14.55824 2.44787,7.0289 5.128697,13.97945 8.467767,20.64133 0.10625,0.21762 2.60941,5.34441 2.76748,5.66714 1.22025,2.49138 2.33118,5.11305 4.21023,7.19696 7.76838,8.2251 19.40043,-2.76105 11.63205,-10.98615 z" />
    <path
       style="fill:#faf8eb;fill-opacity:1;fill-rule:nonzero;stroke:none;stroke-width:0.264583"
       id="path33"
       d="m 107.72663,115.23707 c -0.0108,0.069 -0.0902,0.24634 -0.0325,0.20706 0.0997,-0.0678 0.11715,-0.2111 0.185,-0.31074 0.23379,-0.34336 0.49874,-0.66457 0.75707,-0.98987 0.61224,-0.77097 0.90791,-1.10537 1.57476,-1.89238 2.22351,-2.57034 4.26602,-5.29472 6.59526,-7.77233 0.19599,-0.19532 0.39197,-0.39064 0.58796,-0.58597 7.97446,-8.025452 -3.37525,-19.303044 -11.34971,-11.277588 v 0 c -0.31372,0.31764 -0.62744,0.635283 -0.94115,0.952926 -2.49082,2.686708 -4.75246,5.565886 -7.118009,8.361452 -2.231969,2.65118 -4.478094,5.37338 -5.585478,8.71501 -3.247335,10.83766 12.079427,15.43009 15.326757,4.59243 z" />
    <path
       style="fill:#faf8eb;fill-opacity:1;fill-rule:nonzero;stroke:none;stroke-width:0.264583"
       id="path34"
       d="m 119.4168,140.47952 c 2.27641,-2.56646 4.40886,-5.25799 6.584,-7.91021 1.81941,-2.20941 3.61872,-4.44321 5.77255,-6.3382 0.006,0.01 0.012,0.0201 0.0181,0.0301 -0.19044,0.13397 -0.38088,0.26795 -0.57132,0.40192 10.00453,-5.28294 2.53333,-19.43148 -7.4712,-14.14854 v 0 c -1.87294,1.11882 -1.002,0.52038 -2.62586,1.77621 -2.75079,2.47278 -5.18116,5.24877 -7.49383,8.13239 -1.97577,2.4092 -3.91655,4.85065 -5.96457,7.19876 -7.677434,8.31006 4.07476,19.16759 11.75219,10.85753 z" />
    <path
       style="fill:#faf8eb;fill-opacity:1;fill-rule:nonzero;stroke:none;stroke-width:0.264583"
       id="path35"
       d="m 128.51687,163.53169 c 0.0103,0.0109 0.0219,0.0444 0.0311,0.0325 0.85333,-1.11287 -0.0803,-0.12979 1.07272,-1.42513 1.15776,-1.30063 2.46902,-2.41503 3.79999,-3.53075 3.58279,-2.82263 7.55453,-5.07438 11.56287,-7.22398 2.82548,-1.47348 5.71017,-2.82877 8.52863,-4.31572 0.0154,-0.0479 3.44177,-1.77729 1.47539,-0.8075 10.62855,-3.87736 5.14514,-18.9084 -5.48341,-15.03105 v 0 c -1.19165,0.5031 -2.35107,1.04281 -3.4709,1.69409 -2.8461,1.50912 -5.77473,2.85591 -8.6211,4.365 -5.00332,2.69144 -9.93876,5.54909 -14.36519,9.13778 -0.76462,0.65803 -1.54938,1.29335 -2.29384,1.9741 -2.75752,2.52154 -5.26037,5.3829 -6.91226,8.75771 -4.50634,10.37752 10.16969,16.75044 14.67603,6.37292 z" />
    <path
       style="fill:#faf8eb;fill-opacity:1;fill-rule:nonzero;stroke:none;stroke-width:0.264583"
       id="path36"
       d="m 151.21975,189.73474 c 0.82081,-0.0612 1.62836,-0.24019 2.44648,-0.32143 0.0741,-0.007 -0.14682,0.0248 -0.22023,0.0372 -4.23812,-0.64487 -5.61044,-0.13078 -7.98084,-5.95695 -1.10742,-2.72189 0.48991,-5.55872 2.20612,-7.39889 0.69594,-0.7462 1.31749,-0.9811 2.13084,-1.34934 1.7552,-0.59446 3.53939,-0.57215 5.26583,0.1135 0.43102,0.17118 0.81789,0.43746 1.22683,0.6562 -9.38101,-6.32429 -18.32491,6.94246 -8.94389,13.26675 v 0 c 0.47247,0.26156 0.91878,0.57729 1.41741,0.78468 2.08455,0.86701 4.23678,0.91426 6.38809,0.25639 1.19445,-0.48713 2.15808,-0.79612 3.16677,-1.78928 1.97214,-1.94176 3.8735,-5.06238 2.74382,-8.08726 -2.29724,-6.1512 -3.98841,-5.63967 -8.5097,-6.4711 -1.10894,0.0884 -2.20483,0.24722 -3.30855,0.38142 -11.22754,1.39372 -9.25652,17.27185 1.97102,15.87813 z" />
    <path
       style="fill:#faf8eb;fill-opacity:1;fill-rule:nonzero;stroke:none;stroke-width:0.264583"
       id="path37"
       d="m 186.07067,148.74196 c -0.94068,0.30424 -1.81899,0.72693 -2.69448,1.18401 -0.7512,0.44729 -1.57376,0.92941 -2.15599,1.60126 -0.12137,0.14006 0.27407,-0.24955 0.41111,-0.37433 0.083,-0.0656 0.32883,-0.26638 0.24902,-0.19689 -0.27991,0.24374 -0.59655,0.44823 -0.84955,0.7198 -0.83846,0.90006 -1.70082,1.97279 -2.07762,3.18009 -0.16557,0.53052 -0.28557,1.0742 -0.42835,1.61129 1.2328,5.09328 0.49187,6.43294 4.59841,8.62029 10.19508,4.90513 17.13198,-9.51289 6.9369,-14.41802 v 0 c 3.87849,2.12602 3.07695,3.55148 4.25365,8.38783 -0.54082,1.97622 -0.76784,2.64295 -2.24783,4.20409 -0.21139,0.22298 -0.48332,0.38038 -0.71045,0.58732 -0.13023,0.11865 0.27944,-0.21462 0.41916,-0.32194 0.20088,-0.17711 0.4007,-0.35542 0.60263,-0.53133 0.0863,-0.0752 -0.16624,0.15764 -0.25564,0.22906 -0.74064,0.59172 -0.39163,0.29627 -1.18905,0.80182 -0.1854,0.11754 0.8991,-0.51069 0.5752,-0.32075 -0.23859,0.11657 -0.47455,0.2387 -0.71577,0.34973 -0.0668,0.0307 -0.27618,0.10093 -0.20734,0.0751 0.50817,-0.19036 1.02078,-0.36909 1.52436,-0.57166 10.47707,-4.26977 4.4387,-19.08659 -6.03837,-14.81681 z" />
    <path
       style="fill:#faf8eb;fill-opacity:1;fill-rule:nonzero;stroke:none;stroke-width:0.264583"
       id="path38"
       d="m 152.66812,218.42801 c 1.23295,0.94693 2.46834,1.88295 3.75358,2.76024 1.9598,1.2382 4.05988,2.25453 6.28065,2.9312 1.59744,0.48674 2.1664,0.53801 3.81262,0.83323 3.25992,0.47132 6.55332,0.30452 9.78015,-0.31696 1.79279,-0.34529 2.97833,-0.71451 4.72677,-1.20324 4.17011,-1.23858 8.25588,-2.72396 12.18622,-4.58824 3.60607,-1.78316 6.67509,-4.33996 9.43027,-7.23482 2.15387,-2.35487 3.58534,-5.18549 4.81829,-8.09588 0.83822,-2.08045 1.58244,-4.19742 2.25147,-6.33785 0.55557,-1.77979 0.98208,-3.591 1.28876,-5.42904 0.15848,-0.9842 0.28653,-1.9729 0.39866,-2.96334 1.26622,-11.24263 -14.63326,-13.03334 -15.89948,-1.79071 v 0 c -0.0802,0.71747 -0.17251,1.43362 -0.28531,2.14676 -0.18123,1.11557 -0.44452,2.21041 -0.78249,3.2902 -0.50694,1.6473 -1.08938,3.27057 -1.71789,4.87533 -0.48442,1.16138 -0.95752,2.34792 -1.73489,3.35112 -1.36497,1.49212 -2.88621,2.81841 -4.68975,3.76321 -3.08444,1.50759 -6.34273,2.59882 -9.61688,3.61679 -2.44667,0.70268 -4.92966,1.45334 -7.50612,1.13727 -1.36436,-0.18963 -2.66093,-0.51459 -3.83435,-1.27678 -1.5002,-0.96021 -2.79451,-2.2103 -4.32663,-3.12682 -9.6579,-5.89279 -17.99156,7.76555 -8.33365,13.65833 z" />
    <path
       style="fill:#faf8eb;fill-opacity:1;fill-rule:nonzero;stroke:none;stroke-width:0.264583"
       id="path39"
       d="m 169.60861,121.27139 c 2.97568,-1.0497 5.49117,-2.98129 7.99977,-4.83708 4.27824,-3.11992 8.41833,-6.41368 12.43837,-9.85821 3.32522,-2.85154 6.25229,-6.10621 8.79668,-9.667915 1.65443,-2.315914 2.21441,-3.32695 3.6989,-5.751473 3.37546,-5.701794 6.18215,-11.713112 8.94551,-17.727676 1.86545,-4.167856 3.82322,-8.291218 5.82505,-12.394808 1.69623,-3.309347 3.28169,-6.671352 4.81404,-10.059106 1.58147,-3.47744 3.17712,-6.948305 4.74441,-10.432161 0.51693,-1.109446 0.97271,-2.248363 1.52829,-3.339581 5.03932,-10.129425 -9.28585,-17.256102 -14.32517,-7.126677 v 0 c -0.63258,1.284804 -1.21238,2.593687 -1.79457,3.901998 -1.56307,3.474519 -3.15488,6.93588 -4.73178,10.40415 -1.46744,3.246326 -2.98944,6.465898 -4.61542,9.636387 -2.0562,4.215071 -4.06694,8.450656 -5.9843,12.731144 -2.50292,5.450075 -5.03144,10.904026 -8.06989,16.081679 -2.57996,4.261244 -5.3583,8.402081 -9.24789,11.59891 -3.72822,3.200783 -7.57591,6.251069 -11.54671,9.147049 -1.17927,0.87512 -2.38917,1.86008 -3.66434,2.55819 -10.70219,3.66921 -5.51314,18.80439 5.18905,15.13518 z" />
    <path
       style="fill:#faf8eb;fill-opacity:1;fill-rule:nonzero;stroke:none;stroke-width:0.264583"
       id="path40"
       d="m 239.46878,72.072716 c -1.43095,-1.825075 -2.50838,-3.883567 -3.54745,-5.946227 -1.83643,-3.522507 -2.99708,-7.298703 -3.94512,-11.137749 -1.02276,-4.34843 -1.49668,-8.793131 -1.99729,-13.223566 -0.27673,-2.499894 -0.50344,-5.004871 -0.68685,-7.513219 -0.82965,-11.283248 -16.78657,-10.109947 -15.95692,1.1733 v 0 c 0.20071,2.716358 0.44369,5.429422 0.74497,8.136639 0.57968,5.128667 1.16063,10.269296 2.37117,15.296816 1.25745,5.007523 2.8225,9.928392 5.21185,14.527525 1.77315,3.455807 3.65653,6.908038 6.2919,9.796557 7.85601,8.141444 19.36975,-2.968633 11.51374,-11.110076 z" />
    <path
       style="fill:#faf8eb;fill-opacity:1;fill-rule:nonzero;stroke:none;stroke-width:0.264583"
       id="path41"
       d="m 210.28327,27.741075 c -1.05592,1.478582 -2.38881,2.686124 -3.77836,3.839435 -1.62899,1.34534 -3.56543,2.140702 -5.50318,2.915034 -2.15622,0.891058 -4.37133,1.62216 -6.58463,2.355008 -1.98681,0.678056 -4.02046,1.199534 -6.06249,1.680036 -1.90397,0.397909 -3.83143,0.674904 -5.76132,0.911778 -0.86219,0.08709 -1.72082,0.205221 -2.57892,0.325165 -11.20439,1.568976 -8.98552,17.414374 2.21887,15.845395 v 0 c 0.77306,-0.108497 1.54661,-0.21513 2.32367,-0.29151 2.5067,-0.311811 5.01032,-0.676457 7.47857,-1.219986 2.4958,-0.592171 4.98086,-1.235535 7.41103,-2.0619 2.52488,-0.836078 5.04829,-1.680498 7.50939,-2.693133 3.51656,-1.41364 6.93072,-3.07146 9.85666,-5.528553 2.22658,-1.892665 4.36287,-3.888211 6.10021,-6.253538 6.94607,-8.9304 -5.68342,-18.753631 -12.6295,-9.823231 z" />
  </g>
</svg>
