<?xml version="1.0" encoding="UTF-8" standalone="no"?>
<!-- Created with Inkscape (http://www.inkscape.org/) -->

<svg
   width="256mm"
   height="256mm"
   viewBox="0 0 256 256"
   version="1.1"
   id="svg1"
   sodipodi:docname="doodle.svg"
   inkscape:version="1.3 (0e150ed6c4, 2023-07-21)"
   xmlns:inkscape="http://www.inkscape.org/namespaces/inkscape"
   xmlns:sodipodi="http://sodipodi.sourceforge.net/DTD/sodipodi-0.dtd"
   xmlns="http://www.w3.org/2000/svg"
   xmlns:svg="http://www.w3.org/2000/svg">
  <sodipodi:namedview
     id="namedview1"
     pagecolor="#ffffff"
     bordercolor="#000000"
     borderopacity="0.25"
     inkscape:showpageshadow="2"
     inkscape:pageopacity="0.0"
     inkscape:pagecheckerboard="0"
     inkscape:deskcolor="#d1d1d1"
     inkscape:document-units="mm"
     inkscape:zoom="0.70110129"
     inkscape:cx="477.81969"
     inkscape:cy="498.50144"
     inkscape:window-width="1920"
     inkscape:window-height="1001"
     inkscape:window-x="-9"
     inkscape:window-y="-9"
     inkscape:window-maximized="1"
     inkscape:current-layer="layer1" />
  <defs
     id="defs1" />
  <g
     inkscape:label="Layer 1"
     inkscape:groupmode="layer"
     id="layer1">
    <path
       style="fill:#faf8eb;fill-opacity:1;fill-rule:nonzero;stroke:none;stroke-width:0.264583"
       id="path1"
       d="m 171.72033,121.16686 c 0.48098,-0.20894 0.97795,-0.38438 1.44294,-0.62684 2.19506,-1.14462 4.14385,-2.71167 6.0417,-4.28323 2.31497,-1.91696 3.51571,-3.01796 5.80602,-5.04785 3.68315,-3.3579 7.19585,-6.90607 10.30345,-10.81051 3.50066,-4.3983 6.48753,-9.123036 9.4537,-13.885674 3.61129,-6.10017 7.20781,-12.223308 10.35065,-18.582529 2.03109,-4.109712 2.40761,-5.121505 4.19835,-9.264152 1.81546,-4.307062 3.26916,-8.750273 4.90766,-13.124085 3.96248,-10.59711 -11.0241,-16.200897 -14.98658,-5.603785 v 0 c -1.54168,4.129802 -2.92504,8.318556 -4.61362,12.393092 -1.5763,3.666593 -1.93832,4.634804 -3.73146,8.275618 -2.94434,5.978216 -6.3317,11.725947 -9.71532,17.461722 -2.53595,4.092308 -5.08122,8.175281 -8.05707,11.970539 -2.61537,3.335525 -5.60293,6.343922 -8.72679,9.199866 -2.17459,1.930418 -3.05382,2.742888 -5.21139,4.545728 -0.54909,0.45881 -1.1087,0.90497 -1.66902,1.34999 -0.31383,0.24926 -0.64107,0.48141 -0.95327,0.73271 -0.068,0.0547 -0.15661,0.10207 -0.18592,0.18425 -0.0138,0.0388 0.0821,-0.006 0.12321,-0.008 -10.69399,3.69305 -5.47123,18.81663 5.22276,15.12358 z" />
    <path
       style="fill:#faf8eb;fill-opacity:1;fill-rule:nonzero;stroke:none;stroke-width:0.264583"
       id="path2"
       d="m 235.25638,68.645507 c 0.21841,-0.07589 0.45452,-0.05763 0.67635,-0.112667 0.0433,-0.01074 0.0697,-0.06298 0.11364,-0.07067 0.11904,-0.02085 0.2747,0.07058 0.36234,-0.01265 0.0542,-0.05143 -0.21758,-0.54214 -0.39271,-0.890165 -2.31158,-4.015287 -3.53973,-8.506587 -4.66169,-12.966123 -1.20365,-4.784418 -2.17553,-9.614754 -2.76627,-14.512562 -0.19948,-1.737635 -0.33562,-3.481247 -0.35011,-5.230289 -0.12606,-0.448019 0.28463,-3.088748 -0.0899,-0.833773 2.67044,-10.994025 -12.87746,-14.770604 -15.54791,-3.776573 v 0 c -0.28675,1.57896 -0.41166,3.168566 -0.36137,4.775968 0.0275,2.340872 0.19197,4.676076 0.46689,7.001322 0.68523,5.569645 1.76232,11.07096 3.14029,16.511854 1.67223,6.542061 3.63136,13.095444 7.45851,18.747023 0.7584,0.920332 1.43769,1.912022 2.27521,2.760993 3.09806,3.14044 7.29444,4.839639 11.69124,4.480975 11.22367,-1.4245 9.20912,-17.297166 -2.01455,-15.872666 z" />
    <path
       style="fill:#faf8eb;fill-opacity:1;fill-rule:nonzero;stroke:none;stroke-width:0.264583"
       id="path3"
       d="m 206.33978,31.48349 c -0.20051,0.201263 0.29292,-0.729152 0.12956,-0.603869 -0.15257,0.117009 -0.211,0.321635 -0.32332,0.477697 -0.18386,0.255482 -0.36858,0.510654 -0.56498,0.756624 -0.88454,1.107742 -1.10629,1.301895 -2.1334,2.411653 -2.76622,2.970078 -6.03863,5.371873 -9.62126,7.253367 -2.93349,1.327158 -6.11361,1.903135 -9.25501,2.499828 -2.05086,0.411271 -1.07328,0.211439 -2.93314,0.597578 -11.07718,2.301335 -7.8226,17.96683 3.25457,15.665494 v 0 c 1.70209,-0.353869 0.81256,-0.171709 2.66887,-0.544988 4.74658,-0.904307 9.50515,-1.933702 13.85267,-4.131646 0.81957,-0.448358 1.65485,-0.869106 2.4587,-1.345076 4.21678,-2.49683 8.02104,-5.656175 11.3895,-9.205293 2.67461,-2.955449 5.43452,-6.043478 6.59807,-9.944976 2.74809,-10.97488 -12.77273,-14.861272 -15.52083,-3.886393 z" />
    <path
       style="fill:#faf8eb;fill-opacity:1;fill-rule:nonzero;stroke:none;stroke-width:0.264583"
       id="path11"
       d="m 43.140701,180.83392 c 0.510132,-2.69184 1.082336,-5.37131 1.651656,-8.05117 1.428385,-6.88327 2.771921,-13.7838 4.162332,-20.67483 1.014423,-4.75516 1.887948,-9.53843 2.833095,-14.3072 0.04523,-0.17794 0.09046,-0.35588 0.135697,-0.53381 2.651371,-10.99865 -12.903062,-14.74826 -15.554436,-3.74961 v 0 c -0.0924,0.39301 -0.184803,0.78601 -0.277206,1.17902 -0.937657,4.74946 -1.813407,9.51138 -2.821081,14.24706 -1.379611,6.83763 -2.713233,13.68458 -4.129185,20.51477 -0.745495,3.50977 -1.598776,7.02089 -1.981684,10.59237 -0.553945,11.30014 15.426867,12.08354 15.980812,0.7834 z" />
    <path
       style="fill:#faf8eb;fill-opacity:1;fill-rule:nonzero;stroke:none;stroke-width:0.264583"
       id="path12"
       d="m 38.407213,137.17293 c 2.766866,2.24601 5.55672,4.46338 8.318949,6.71544 2.986553,2.46364 5.897801,5.01593 8.886605,7.47684 8.736116,7.1889 18.902754,-5.16583 10.166639,-12.35473 v 0 c -3.009273,-2.47469 -5.932678,-5.05087 -8.943681,-7.52359 -2.976084,-2.42575 -5.972199,-4.82733 -8.973384,-7.22134 -9.126897,-6.68578 -18.582028,6.2216 -9.455128,12.90738 z" />
    <path
       style="fill:#faf8eb;fill-opacity:1;fill-rule:nonzero;stroke:none;stroke-width:0.264583"
       id="path13"
       d="m 72.889879,148.92519 c 1.520259,-4.55361 3.101102,-9.08662 4.657688,-13.62786 0.878231,-2.58978 1.772989,-5.17217 2.736966,-7.73116 3.976399,-10.59189 -11.002801,-16.21537 -14.979202,-5.62348 v 0 c -1.012749,2.70545 -1.971046,5.42894 -2.893354,8.16678 -1.609098,4.69465 -3.247514,9.37948 -4.808434,14.09047 -3.341251,10.80908 11.945088,15.53432 15.286336,4.72525 z" />
    <path
       style="fill:#faf8eb;fill-opacity:1;fill-rule:nonzero;stroke:none;stroke-width:0.264583"
       id="path14"
       d="m 67.128339,123.24975 c 1.33187,4.03281 2.431261,8.14961 3.612793,12.23074 2.29253,8.08962 5.096719,16.01848 7.992697,23.90781 1.162066,3.24661 2.409764,6.4583 3.80647,9.61078 4.601316,10.33576 19.218281,3.82851 14.61697,-6.50725 v 0 c -1.263811,-2.82093 -2.352106,-5.71213 -3.403883,-8.61833 -2.768505,-7.53793 -5.453967,-15.11223 -7.643384,-22.84248 -1.353844,-4.6763 -2.565797,-9.41378 -4.234627,-13.98811 -4.388903,-10.42773 -19.135939,-4.22088 -14.747036,6.20684 z" />
    <path
       style="fill:#faf8eb;fill-opacity:1;fill-rule:nonzero;stroke:none;stroke-width:0.264583"
       id="path16"
       d="m 110.72737,115.29169 c 1.6201,-1.97555 3.50681,-3.7103 5.35876,-5.4634 1.19027,-1.13187 2.4245,-2.20733 3.72913,-3.20368 8.92087,-6.958324 -0.91969,-19.574324 -9.84055,-12.616002 v 0 c -1.69021,1.334484 -3.34471,2.70605 -4.89386,4.205727 -2.75654,2.614435 -5.572134,5.224315 -7.763595,8.349875 -6.171259,9.48239 7.238855,18.20986 13.410115,8.72748 z" />
    <path
       style="fill:#faf8eb;fill-opacity:1;fill-rule:nonzero;stroke:none;stroke-width:0.264583"
       id="path19"
       d="m 155.82671,188.34649 c -1.22505,1.25518 -3.97231,2.52068 -5.5633,1.69179 -2.62697,-1.36863 -5.11493,-3.39718 -6.58164,-5.97067 -0.79774,-1.39971 0.29022,-3.20907 0.43533,-4.8136 0.42129,-0.64328 0.73413,-1.37245 1.26387,-1.92983 2.44487,-2.57243 5.76451,-2.70041 8.88335,-1.12048 2.0051,1.01574 2.30664,2.27561 3.10614,4.02161 0.18293,1.31602 0.56293,2.76773 -0.14719,4.05765 -0.79802,1.44959 -2.02828,2.61507 -3.04242,3.92261 9.464,-6.19942 0.69669,-19.58353 -8.7673,-13.38411 v 0 c -1.08353,1.35299 -2.4062,2.54516 -3.25058,4.05896 -0.88818,1.59234 -0.47207,3.55037 -0.31887,5.20912 0.93401,2.36879 1.23403,4.08651 3.76053,5.56815 3.79209,2.22382 7.94881,1.94585 11.12661,-1.05649 0.76132,-0.71928 1.241,-1.68755 1.86149,-2.53133 0.24004,-1.80613 1.53884,-3.7907 0.7201,-5.41839 -1.38996,-2.76329 -3.96263,-4.96629 -6.68362,-6.43733 -1.75542,-0.94903 -4.719,0.48317 -6.32304,1.40801 -0.70175,0.40461 -1.33662,1.02472 -1.93498,1.55423 -7.89845,8.10027 3.55706,19.27037 11.45552,11.1701 z" />
    <path
       style="fill:#faf8eb;fill-opacity:1;fill-rule:nonzero;stroke:none;stroke-width:0.264583"
       id="path20"
       d="m 190.1757,165.58924 c -0.94614,0.40615 -2.16846,0.57458 -3.14386,0.22821 -3.44308,-1.22265 -5.35906,-2.7924 -5.82277,-6.8138 -0.16677,-1.44628 0.70576,-2.8249 1.05864,-4.23736 0.53423,-0.62933 1.30683,-1.8057 2.2211,-2.13732 0.8401,-0.30472 1.71058,-0.6609 2.60394,-0.63804 3.02281,0.0773 5.01295,1.38002 6.53819,4.12812 0.58536,1.05466 0.43303,2.37324 0.64955,3.55986 -0.23399,0.84614 -0.46798,1.69228 -0.70197,2.53842 5.3072,-9.99168 -8.82317,-17.49719 -14.13037,-7.50551 v 0 c -0.35802,1.07964 -0.71604,2.15928 -1.07406,3.23893 0.18352,1.49035 -0.091,3.11339 0.55055,4.47106 1.6428,3.47673 4.14635,5.2421 7.86204,5.56619 1.31473,0.11467 2.64608,-0.23804 3.91141,-0.61302 2.21416,-0.65618 3.17206,-2.02475 4.78517,-3.58931 0.57339,-1.73556 1.78743,-3.38009 1.72018,-5.20668 -0.16931,-4.5981 -2.54739,-6.78326 -6.415,-8.31429 -2.03472,-0.80547 -4.3961,-0.19888 -6.37055,0.39645 -10.55575,4.07139 -4.79794,18.99947 5.75781,14.92809 z" />
    <path
       style="fill:#faf8eb;fill-opacity:1;fill-rule:nonzero;stroke:none;stroke-width:0.264583"
       id="path21"
       d="m 196.6803,189.13092 c -0.77819,-0.16047 -0.13473,-1.0304 -0.44884,-1.41119 -0.002,-0.003 -0.0401,0.13707 -0.15955,0.53347 -0.27342,0.90711 -0.12539,0.46995 -0.50725,1.43913 -1.26381,3.0045 -3.19327,5.65924 -5.19628,8.20615 -2.13571,2.60233 -4.88631,4.50865 -7.91305,5.9383 -0.71654,0.33845 -1.4565,0.62491 -2.18475,0.93737 -2.81207,1.02993 -5.73676,1.74647 -8.72728,1.98014 -1.45364,0.11358 -1.8779,0.0533 -3.28306,-0.0119 -0.31662,-0.0313 -2.90437,-0.36524 -2.82977,-1.01451 -0.0144,-0.0533 0.10583,0.0422 0.14388,0.0822 -6.77568,-9.06037 -19.58897,0.52189 -12.81329,9.58225 v 0 c 0.71288,0.91459 1.45274,1.80372 2.34285,2.55694 1.30347,1.0414 1.66608,1.41835 3.18725,2.24624 2.92635,1.59264 6.17762,2.3098 9.47977,2.5394 0.92237,0.0202 1.84468,0.0772 2.76713,0.0606 5.55486,-0.1006 11.0141,-1.3812 16.18057,-3.37808 1.08864,-0.4876 2.19605,-0.9353 3.26592,-1.46281 5.01323,-2.47179 9.47803,-5.87544 13.00733,-10.22511 3.02455,-3.91133 5.8736,-8.01023 7.64359,-12.66393 1.04859,-3.06381 1.99402,-6.33199 1.4728,-9.61182 -0.11845,-0.7454 -0.3637,-1.46503 -0.54554,-2.19755 -4.15413,-10.52346 -19.03655,-4.64865 -14.88243,5.87481 z" />
    <path
       style="fill:#faf8eb;fill-opacity:1;fill-rule:nonzero;stroke:none;stroke-width:0.264583"
       id="path22"
       d="m 94.234028,119.65786 c 1.332053,3.00803 2.662039,6.01469 3.918085,9.05574 1.892667,4.70555 3.839817,9.38882 5.745027,14.08926 1.37339,3.54142 2.8184,7.05482 4.15618,10.60992 0.85276,2.28571 1.66922,4.58538 2.66847,6.81209 4.71455,10.2846 19.25917,3.61722 14.54462,-6.66738 v 0 c -0.90324,-1.85899 -1.45343,-3.87536 -2.23955,-5.78325 -1.38632,-3.67909 -2.87675,-7.31763 -4.30158,-10.98189 -1.91908,-4.73418 -3.87964,-9.45137 -5.78648,-14.19053 -1.19882,-2.89846 -2.42782,-5.78395 -3.74887,-8.62912 -4.02001,-10.57542 -18.975915,-4.89026 -14.955902,5.68516 z" />
    <path
       style="fill:#faf8eb;fill-opacity:1;fill-rule:nonzero;stroke:none;stroke-width:0.264583"
       id="path23"
       d="m 127.66163,164.2418 c 2.19688,-2.25985 4.43712,-4.47504 6.70616,-6.66233 4.22801,-4.24392 8.94739,-7.90883 13.82421,-11.36516 2.78479,-1.92884 1.44019,-1.0133 4.03046,-2.75153 9.39208,-6.30784 0.47145,-19.59025 -8.92063,-13.28241 v 0 c -2.83212,1.9035 -1.37428,0.9094 -4.37068,2.98647 -5.52399,3.926 -10.86611,8.09654 -15.66994,12.89552 -2.24508,2.16587 -4.47608,4.3462 -6.63729,6.59631 -8.19051,7.80485 2.8472,19.38797 11.03771,11.58313 z" />
    <path
       style="fill:#faf8eb;fill-opacity:1;fill-rule:nonzero;stroke:none;stroke-width:0.264583"
       id="path24"
       d="m 120.0048,141.12952 c 1.47512,-1.48672 2.89144,-3.04093 4.29631,-4.59614 2.0773,-2.40836 4.38111,-4.59612 6.72024,-6.74438 8.32932,-7.65653 -2.49864,-19.43597 -10.82796,-11.77944 v 0 c -2.70364,2.48724 -5.35908,5.02836 -7.77112,7.805 -1.6839,1.86848 -3.45652,3.65526 -5.09932,5.55941 -6.89821,8.96742 5.78363,18.72297 12.68185,9.75555 z" />
  </g>
</svg>
